<svg id="Layer_1" data-name="Layer 1" xmlns="http://www.w3.org/2000/svg" viewBox="0 0 1322 239.51"><title>mountians</title><path d="M24,450.47c3.29-7.68,40.59-11,41.69-7.68-1.1-8.78,24.14-37.3,40.59-43.88,2.38-.22,8.62-4.11,12.07,0,4.59,5.46,11.39,12,13.16,13.16,5.23,3.43-13.16,9.87-13.16,9.87s47.54,6.44,52.66,6.59c6.58,1.09-4.39,4.38-4.39,4.38,10.07-2,49.37,14.27,49.37,14.27,16.45-15.36,45-12.07,45-12.07-.28-4.67-68.92-23.12-68-27.43,11-12.07,74.6,4.39,120.68-37.3,16.45,3.29,17.55,2.2,23-13.16,5.51-18.38,41.94-23.16,35.1-24.14,25.63-33.13,65.8-44.56,114.1-43.88-2.2,24.13,21.94,34,21.94,34s-3.76,11-23,17.55c0,0-6.79,7.12-6.58,8.78,1,8.35,18.55,4.78,18.65,3.29,49.37,19.75,38.4,11,60.34-16.46,5.29,1.61,7.51,35.94,23,28.53,2.22-1.06,15.7-3.4,18.65-5.49.64,2.79,3.6,19.38,2.19,16.46-7.57,12.09-11.68,13.45,5.49,16.45,2.19,15.36-1.1,18.65-5.49,26.33-3.82,4.76-2,6.36,3.29,3.29,3.58-2.06,5.57-11.14,13.17-13.16,1.39-.37,3.53,5.85,8.77,1.1,17.18-17.78,16.46,0,14.26,2.19,13.32-8.79,19,12.84,18.65,21.94,4.39,4.39,52.66,26.33,71.31,36.21,18.68,8.3,10.74-.38,4.39-6.59-35.1-24.13-69.11-57-66.92-71.31,0,0,18.65,12.07,38.4,27.43,5.08-1.16,18.08,4.49,47.17,13.16,22.9,6.83,29.26,2.7,48.27,26.33,7.68,4.39,11,8.78,4.39-4.38-5.72-8.17-4.39-24.14-4.39-24.14-3.29,1.1-73.5-26.33-82.28-35.11-10-12.18-3.39-12.46,7.68-12.06,9.36-6,11.42-18.23,34-5.49,13.54,1.72,31.91-15.72,58.31-24.33,33.3-10.87,63.87-35.39,94.18-38.2,19.59-.89,28.41,3.3,31.82,2.19,9.87,0,13.16-2.19,14.26,9.88,2.33,5.76,5.62,6.83,8.78,7.68-14.26,7.68-23,9.87-25.23,19.74-8.78,1.1-12.14,1.47-12.07,12.07,0,2.57-3.29,3.29-3.29,3.29,6.58,3.29,29.69.35,28.52-1.1-11,4.39-14.26,25.24-14.26,25.24-2.55,3.69-13.17,3.29,2.19,28.52,1.1,12.07-6.43,25.89,8.78,6.58,5.94-7.54,19.75-3.29,19.75-3.29-7.68,26.33,8.77,20.85,2.19,52.66,10.21-17.37,64.73,18.65,77.89,27.43,2.3.43,7.19-5-2.19-11-11.37-7.77-18.21-29.69-16.46-34-11-6.58-18.65-34-18.65-40.59,3.09-2.48,14.77-10.9,29.62-3.29,19.31,9.89,22.87.21,29.62,0,21.2-20.41,45.62-11.08,46.08-6.59,4,3.72,23.08,2.43,39.5-1.09,39.15-8.4,35.51,2.28,35.1,4.38,12.07,6.59,5.49,11-4.39,19.75-1,.47-1.41,3-1.09,5.49-12.11,8.75-4.55,9.78,5.48,7.68,11.22-2.35,29-15.25,34-11,.29.24,2.19,2.19,1.1,6.58,9.29,4.65-.6,10.49,1.09,13.16,18.65-11,42.79-15.36,26.33,8.78,37.3-11,73.51,37.3,87.77,38.4-.42.49.83-8.65-4.39-11-14.88-6.64-59.88-37-70.21-56,0,0-73.5-34-100.93-58.15-4.52.69-5.13-11-25.23,2.2-24.14,30.71-89.22-10.74-111.9-29.63-19.16-15.94-47.18-35.1-60.34-40.59-18.65-28.52-26.33-20.84-52.66-5.48C849,330.89,777.72,360.51,770,366c0,0-20-5.36-18.65-3.29-19.75-6.58-42.79,4.39-42.79,4.39-21.67,1.3-35.4-11.26-56-27.43-4.9-3.86-11.55-.23-17.55-5.48-19.3-16.88-21.71-16.1-54.85-18.65-37.3-14.26-40.6-26.33-65.83-41.69-11-8.78-13.79-12-47.17,7.68-65.83,8.78-57.05,11-106.42,38.4-51.56,29.62-111.9,68-156.88,75.69-7.54,2.61-16.51,3.21-27.43,1.1-20-3.85-26-8.53-42.78-18.65-15.24-9.16-27.82-.48-31.82,4.39-7.53,9.16-6.58,13.16-29.62,25.23-13.16,1.1-20.84,12.07-31.81,24.14-1.07,1.84-15.36,12.07-15.36,12.07S23.78,451.93,24,450.47Z" transform="translate(-24 -266.94)"/></svg>