<svg id="Layer_1" data-name="Layer 1" xmlns="http://www.w3.org/2000/svg" viewBox="0 0 516.81 421.4"><defs><style>.cls-1{fill:#fff;stroke:#000;stroke-miterlimit:10;stroke-width:9px;}</style></defs><title>could2use</title><path class="cls-1" d="M704,185c33.37-45.43,83.36-32.72,89,21,30.73-46.17,77-28.17,90,19,29.15-28.7,78.54,6.9,57,41,47.5-12.5,87.5,64.5,21,85,62.5,20.5,34.5,97.5-23,89,54.21,65-24.83,107.31-66,61-6.92,53.93-65.82,71.1-85,9-5.5,46.5-56.5,69.5-80,20-13.53,61.16-88.06,48.55-84-17-29.5,25.5-76.5-13.5-52-51-57.5,21.5-80.5-37.5-44-69-52.74-7.29-48.5-70.5-3-76-40.27-34.85-18.51-82.94,44.5-67.5-19.5-60.79,33.77-77,64-42C636.92,149,698.33,144.39,704,185Z" transform="translate(-484.16 -152.76)"/></svg>