<svg 
xmlns="http://www.w3.org/2000/svg" 
version="1.1" 
height="420" 
width="300" 
stroke="black"
id="Fisherman" >
	<!-- face -->
	<circle cx="50" cy="50" r="33" fill="white" />
	<!-- left eye -->
	<circle cx="40" cy="40" r="5" fill="blue" />
	<circle cx="40" cy="40" r="1" fill="white" />
	<!-- right eye -->
	<circle cx="60" cy="40" r="5" fill="blue" />
	<circle cx="60" cy="40" r="1" fill="white" />
	<!-- smile -->
	<polyline points="30,55 32.5,59 35,62 40,67 45,70 55,70 62,65 67,60 69,57 72,52" fill="none" stroke-width="2" />
	<!-- body  -->
	<line x1="50" y1="83" x2="50" y2="190" stroke-width="15" stroke="brown" />
	<!-- left leg -->
	<line x1="35" y1="233" x2="50" y2="190" stroke-width="10" />
	<!-- left foot -->
	<line x1="65" y1="233" x2="86" y2="233" stroke-width="10" />
	<!-- right foot -->
	<line x1="40" y1="233" x2="18" y2="233" stroke-width="10" />
	<!-- right leg -->
	<line x1="70" y1="233" x2="50" y2="190" stroke-width="10" />
	<!-- right arm -->
	<line x1="80" y1="115" x2="50" y2="130" stroke-width="3" />
	<!-- 	left arms 	-->
	<line x1="77" y1="100" x2="50" y2="130" stroke-width="3"  />
	
	
</svg>
	
<svg xmlns="http://www.w3.org/2000/svg" 
version="1.1" 
stroke="black"
height="210"
width="160"
id="pole">
	<!-- fishing pole -->
	<line x1="85" y1="120" x2="0" y2="1" stroke-width="4"/>
	<!-- real -->
	<circle cx="81" cy="101" r="5" fill="white" /> 
	<circle cx="83" cy="100" r="1" />	
</svg>
<svg xmlns="http://www.w3.org/2000/svg" width="1000" height="300" viewBox="0 0 1000 300" id="line"><defs><style>  
      .line {
        fill-rule: evenodd;
      }
    </style>
	</defs>
	<path class="line" d="M24 59c-0.1-0.8 23.7-5.3 49-8a583.6 583.6 0 0 1 79-3c18.3 0.6 75.1 1.9 92 3 26.7 1.7 85.5 4.1 129 6 41.6 1.8 92.8 3.9 123 6 24.3 1.7 56.3 4.4 85 7 39.9 3.6 91.5 9 138 14 25.6 2.8 50.4 6.2 76 9 15 1.7 29.2 3.5 43.2 6C860 103 959.3 122.2 960 141c2.2 56.7-888.7 136.6-889 134-0.1-0.5 36-5.1 43-6 13.1-1.7 28.5-3.4 43-5 20-2.2 39.8-4.1 60-6 53.2-3.9 105-8.5 158-14 37.6-3.9 74.5-8.2 112-13 46.5-4.6 91.7-9.8 138-16 34.6-4.6 68.5-9.5 103-15 15.5-2.1 30.6-4.4 46-7 22.2-3.7 41.7-8.7 64-12 11.8-1.8 54.7-11.1 86-22 14.3-5 28-10.8 28-18 0-11-31.5-20.1-84-31-32.3-6.7-64.7-12-98-16-52.6-6.6-104.1-12.1-157-17-62.1-5.7-129.1-10.3-196-14-62.1-3.4-119.9-3.5-182-8-23.8-1.7-45.8-2.7-70-3q-33.1-0.4-64 1C61.1 54.9 24.1 59.9 24 59Z"/>
</svg>
