<?xml version="1.0" encoding="utf-8"?>
<!-- Svg Vector Icons : http://www.onlinewebfonts.com/icon -->
<!DOCTYPE svg PUBLIC "-//W3C//DTD SVG 1.1//EN" "http://www.w3.org/Graphics/SVG/1.1/DTD/svg11.dtd">
<svg version="1.1" xmlns="http://www.w3.org/2000/svg" xmlns:xlink="http://www.w3.org/1999/xlink" x="0px" y="0px" viewBox="0 0 1000 1000" enable-background="new 0 0 1000 1000" xml:space="preserve">
<metadata> Svg Vector Icons : http://www.onlinewebfonts.com/icon </metadata>
<g><g><g><path d="M416,579.5c-0.5-2.4-1-4.8-1.9-7.6c-1.3,5.3-9.9,7.2-7.4,12.5c1.9,4.1,0.6,10.1,5.5,12.8c1-3,4.1-4.3,6.2-5.6c2.1-1.3,5,2.9,8.3,3.2c1.9,0.1,1,2.4,0.8,3.9c-0.3,1.9-0.5,3.8-0.7,5.7c2.4,3.2,6.1,3.5,9.5,4.5c1.6-0.8,3-1.8,4.8-0.8c3.1,2.4,2.5,5.5,1.8,8.7c-0.1,0.3-0.2,0.5-0.3,0.8c0.1-0.2,0.2-0.3,0.3-0.5c1.7-1.5,2.9-0.1,4.3,0.6c1.9-4.7,2.9-9.7,5-14.4c-3.3-2.7-5.4-6.5-7.7-10c-2.6-4.1-6.3-5.5-10.6-5.7c-4.7-0.2-8.8-1.6-11.8-5.1C418.6,584.8,416.7,583.3,416,579.5z"/><path d="M417.1,324.9c0.3-0.5,0.6-0.9,0.5-1c-5-5.9,2.5-15.3-5.6-20.4c-2.7-1.7-1.4-2.7,0.9-3.9c2-1.1,6.8-0.1,5.8-2.8c-1.4-3.7-1-8.9-5.3-11c-3.5-1.7-7.3-5.8-10.8,0.9c-1,2-6.3,0.9-8,4.5c-0.5,5.3-3.9,8.9-7,12.6c0.1,0.2,0.2,0.3,0.3,0.5c0.8,2.8-0.4,5.3-1,7.9c-0.7,3-3,4.3-6.1,3.9c-6.2-0.8-8.7,2.1-7.1,8.2c0.4,1.6,1.5,3.2,0,4.7c2.9,1.1,5.5,1.2,7-3.2c1.7-1.3,3.6-1.9,5.7-1.8c5.3,2.5,0.5,4.8-0.2,7.1c-0.3,0.1-0.6,0.2-1,0.4c-2.2,0.6-3.6,1.7-4.5,3.1c0.7,2.6,0.5,5.3,0.5,8.1c0,0,0,0,0,0c1-4.9,4.9-7.4,9.7-6.8c3.7,0.5,6,4.6,5.5,9.7c-0.3,3.2,0,6.5-3.4,9c4.3,0.4,3.4-2.8,3.3-4c-0.1-4.1,0.7-7.9,3.2-11.1c1.3-1.6,1.2-3,0.3-4.7c-2.1-4-1.3-7.8,2.7-9.1C407.3,324.3,412.3,321.8,417.1,324.9z"/><path d="M324.2,529.6c-0.9,0.8-1.8,1.3-2.8,1.5c0.3,0,0.6,0,0.9,0c3.6-0.5,5.7,1.5,6.9,4.8c1.1,3,1.6,6.4,4,8.8c-0.9-6.3,2.5-10.6,8.3-11.2c-2.6-0.6-4.9-2.5-7.1-3.9C330.6,527.3,327.9,526.4,324.2,529.6z"/><path d="M345.9,533.1c-0.5,0.2-0.9,0.4-1.4,0.5c0.2,0,0.3,0,0.5,0c3,0.4,6.4,1.1,8.6,3c3,2.5,5.8,3,9,1.9c-0.8-0.5-1.7-1-2.3-1.7C356.4,532.2,352.1,530.1,345.9,533.1z"/><path d="M331,471c1.2-0.3,2.3-0.7,3.1-1C333.3,470.4,332.1,470.6,331,471z"/><path d="M362.7,538.4c0.1,0,0.1,0.1,0.2,0.1c0.2,0.1,0.3,0.1,0.4,0c0,0,0,0,0-0.1c-0.1,0-0.2,0-0.4-0.1C362.8,538.4,362.7,538.4,362.7,538.4z"/><path d="M435.7,169.5c0.3-3.8-0.3-5.4-4.7-4.5c-4.8,0.9-7.6-2.4-6.9-7.4c-0.2,0.3-0.4,0.4-0.7,0.6c-4.8,0.3-5.1-3.3-5.9-6.6c1.8-3.1,3.9-5.7,8.1-5.6c2.1,0,3.4-1.3,3.4-3.6c0.4-1,1.1-1.7,1.7-2.5c-5.3-0.9-11.1,0.2-15.6-3.6c-0.7-0.5-1.1-1.2-1.7-1.7c-4.2-3.3-3.5-7.3-1.8-11.6c0.7-1.8,1.7-2.9,3.8-2.9c4.9,0,5.2-3,3.9-6.7c-0.9-2.7-1.5-5.2-0.3-7.3c-2,2-3,4.5-1.7,8.1c1.2,3.1-0.4,4.5-3.2,5.1c-2.5,0.5-5-0.1-7.5,0c-6.3,0.4-6.9,0.9-7.7,7.5c-0.5,2-1.4,3.7-3,5c-6.1,1.1-10-3.4-13.1-7c-3.4-4-4.8-4.2-7,0.2c-1.3,2.5-3.3,3.6-6,3.8c-10.6,0.9-14.7,9.1-18.6,17.3c-0.8,1.6,0,3.4,0.3,5.1c1.9,7.9,0,10.8-7.8,13.2c-4.7,1.5-10,2.8-14.1,1.5c-5.5-1.7-11.7-2.6-16.4-6.7c-1.4-1.2-2.8-3.4-4,0.1c-1.4,2.6,1.7,6.8-2.8,8.4c-5.1,1.8-10,5.1-15.8,1.7c-3.9-2.2-8-2.4-12.2-0.7c-2.1,0.8-4,1.5-5.2-1.3c-8.4,1.6-15.9,5.5-23.6,8.9c0,0-0.1,0-0.1,0.1c-8.7,13.8-16.7,28-24.1,42.6c8.8-0.9,17.3-3,25.2-8.6c-2.6-2-5.9-1.1-7.5-3.6c-0.1-0.2-0.2-0.3-0.3-0.5c-2.4-6.3,3.9-7.9,6.5-11.4c1.8-2.3,4.5-3.8,7.6-1.7c2.9,2,2.9,7.1-0.4,10.2c-1.5,1.4-3.5,2.3-5.3,3.4c5.9,2.8,10.8-0.9,15.9-2.6c6.9-2.2,13.6-5.3,21-5.5c2.9,0.1,5.5-1.3,8.1-2.3c4.6-2.1,8.1,1.3,9.1,4.2c1.3,3.8,3.2,3.4,5.8,3.3c2.2-0.1,4.2,0.3,5.9,1.7c1.3,0.3,2.2,0.8,2.4,2.3c2.7,0,5.4,0,8.1,0.1c0.3-0.2,0.6-0.5,0.9-0.6c3-1.1,2.9-6.3,6.5-5.7c3,0.5,5.3,3.3,7.9,5.1c0.6,0.4,1.3,0.8,1.9,1.2c1.1,0,2.3,0,3.4,0c2.7,2,5.4,1.9,8.1,0l0,0c2.5-1.5,4.4-4.1,8-3.1c3.1,0.9,5.4,2.1,6.1,5.7c0.7,3.7-2.8,3.3-4.9,5c5,2.6,11.2-0.6,15,4.1c0.1,1.8,0.9,2.9,2.9,2.6c2.8-0.4,5.1,1.2,7.6,2c2.3,0.4,4.2,3.3,6.9,1.1c0-2.3,0.1-4.6,0.1-6.8c0.5-0.4,0.8-0.4,1-0.3c-0.1-1.2-0.9-2.4-0.6-3.7l0,0c-0.8-0.8-0.8-2.3-1.7-3c-3.7-1.9-4.7-4.3-1.5-7.6c0.8-0.8,1.6-1.9,1.7-3c1-13.5,10.5-18.1,21.8-19.9c6-1,11.1-5,17.1-5.5C435.1,173.7,435.5,171.5,435.7,169.5z"/><path d="M515,288.2c-1,0.5-2.6,1.6-3.9,0.7c0,0-0.1,0-0.1,0.1c-0.4,0.2-0.7,0.2-1.1,0.3c-0.2,3.2-0.2,6.1,4.2,7.3c1.3,0.3,3.4,1.9,3.9,1.2c2.3-3.4,6.7-1.9,9.2-4.4c0.8-0.9,0.6-2-0.5-2.3C523,289.8,519.9,285.6,515,288.2z"/><path d="M442.4,618.1c0.1-0.2,0.2-0.4,0.3-0.7C442.6,617.6,442.4,617.8,442.4,618.1C442.4,618.1,442.4,618.1,442.4,618.1z"/><path d="M433.5,685.9c-0.5-0.2-1-0.3-1.4-0.5c-0.4,0.1-0.8,0.2-1.2,0.2c-1.3,0.2-2.6,0.7-3.7,1.4c0,0.4,0.1,0.7,0.1,1.1c0.1,1.9,1,3.4,2.7,4c2.5,1,5.7,3.4,7.5-0.2C439.3,688.6,436.3,686.9,433.5,685.9z"/><path d="M483.2,318.7c-2.2-0.6-4.1-1.5-5.5-3.3c2.4,1.8,2.1,3.5-0.2,5.4c-1.8,1.5-3.5,3.5-2.1,6c1.6,2.8,4.5,2.8,7.1,2c2.5-0.7,6.5-1,6.5-3.6C489.1,322.4,486.5,319.5,483.2,318.7z"/><path d="M239.5,590.8c-0.3-0.8-0.4-1.6-0.6-2.4c-0.2-0.3-0.5-0.5-0.6-0.9c-2.4-10.6-5.5-21.1-6.7-32c-0.2-2.1-0.8-4.1-1.9-6c-3-4.6-5.3-4.6-8,0.1c-2,3.6-4.1,4.2-7.1,1.3c-1.3-1.3-3.5-2.4-4.7-1.3c-2.9,2.8-6.4,2.3-9.8,2.5c1,3.7,1.3,7.4,0.8,11.1c-0.9,5.5,1.2,10.2,3,15.1c1.5,4,4.9,5.1,9,4.6c1.8-0.2,4.2-1.8,4.9,1.4c2.5-4.2,5.9-2.8,8.7-0.9c3.5,2.4,6.7,5,10.6,6.8c2,0.9,3.6,2.6,3.8,5.1c0.1,0.8,0.2,1.4,0.5,1.9c0-0.1,0-0.2,0.1-0.2c-0.2-0.6-0.4-1.2-0.5-2.1C240.8,593.4,240.1,592.1,239.5,590.8z"/><path d="M217.8,584.4c0-0.1-0.1-0.1-0.1-0.1h0C217.8,584.3,217.8,584.4,217.8,584.4z"/><path d="M310.4,495.5c3.4-0.2,4.6-1.1,4.6-4.2c1.6-3.7,3.9-7.2,4.4-11.3c3.6-1.7,7.2-3.3,9.3-7.2c0.5-0.9,1.3-1.4,2.2-1.8c-0.9,0.2-1.9,0.4-3,0.5c-3.1,0.2-4.4-2.5-6.1-4.2c-1.5-1.5-3.4-2.1-5.2-2.2c-2.3-0.2-3.6-1.3-4.1-3.2c-0.6-2.1,0.5-3.6,2.3-4.7c2.3-1.4,5-3,4.1-6.1c-0.4-1.5-2.2-2.5-1.1-4.5c-0.6,2.7-2.3,3.2-4.8,2.9c-1.7-0.2-2.6-1.4-3.9-2.3c-4.2-2.9-10.3-1.9-13.5,1.9c-6.6,8-12.2,9.8-21.9,6.8c-3.2-1-6.4-1.4-9.7-1.3c0.2,0.3,0.4,0.6,0.4,1c0.1,0.5,0,0.8,0,1.2c4.9,1.9,3.4,7.7,5.6,11.8c4-3.8,7.8-3.4,11.7,0.4c1.4,1.4,3.8,1.8,5.7,2.6c1.7,0.8,4,1.3,3.9,3.7c-0.1,2-2.1,2.7-3.6,3.3c-2.2,0.8-3.9-0.4-4.7-2.3c-1.2-3-2.7-4.6-6.1-3c-0.7,0.3-1.7,0.8-1.7,1.3c-0.2,1.7,1.1,4.2-2.1,4.3c-3,0.1-6.3,1.2-8.9-1.2c-2.9-2.8-6.9-2.8-11-5.5c0.8,2,1.2,2.8,1.5,3.7c0.8,2.1,5.4,3.5,1.4,6.3c-3.3,2.3-8.1,0.8-10-2.7c-0.2-0.3-0.3-0.7-0.4-1.1c-0.8-3.3-0.4-8.2-4.4-8.5c-1.5-0.1-2.7,0.4-3.8,1.2c-0.2,0.9-0.2,1.9-0.1,3.1c0.1,1.2-1,2-1.4,3.1c-1,2.7-0.3,4.5,2.6,5.3c2.4,0.7,4.7,1.6,7.1,2.4c4,1.5,4.5,4.5,1.2,7.3c-1.4,1.3-3,2.3-4,4.1c7.3,0,7.3,0,7.8,7.7c0.2,3.2,2.1,4.8,4.8,5.8c2.6,0.9,5.1,2.2,7.5,3.5c-0.2-5.6,1.9-6.4,9.2-5.8c7.7,0.6,15.8,2.2,22.2-4.5c1.2-1.2,2.8-2.3,4.7-1.6c2.2,0.9,0.8,3.1,1.3,4.5c0,0.1,0,0.2,0.1,0.3C300.5,500.4,304.1,495.8,310.4,495.5z"/><path d="M418.9,106.3c0.9-0.9,1.9-1.8,3.1-2.5C420.4,104.4,419.5,105.3,418.9,106.3z"/><path d="M301.9,528.5c-1.7-0.2-2.4-1.1-2.7-2.4c0,3.3,0.6,6.8,5.2,8c1.3,0.3,1.2,2.5,1.4,2.7c-0.3-1.3,0.6-4.6,2-7.2C305.8,530.5,303.8,528.8,301.9,528.5z"/><path d="M307.7,529.6c0.6-0.3,1.2-0.8,1.8-1.7c0.5-0.7,1.1-1.3,1.7-1.6c-0.2,0.1-0.4,0-0.7,0.1C309.6,526.8,308.6,528.1,307.7,529.6z"/><path d="M321.4,531.1c-1.3,0.1-2.4-0.2-3.4-0.8C319,531.3,320.2,531.5,321.4,531.1z"/><path d="M300.4,509c0.1,0.5,0.3,0.9,0.5,1.4c0.1-1.2,0-2.6-0.5-4C300.4,507.3,300.3,508.1,300.4,509z"/><path d="M298.8,521c0,1,0.1,2,0.1,3c0,0.8,0.1,1.5,0.2,2.1c0-0.7,0-1.4,0.1-2C299.3,522.7,299.1,521.7,298.8,521z"/><path d="M300.7,513c0.9-1.1,0.6-1.8,0.2-2.6c-0.2,2.8-1.9,5.1-4.9,6.9c-1.1,0.7-1.8,2-2.2,3.5c2.4-1,4.3-1.5,5,0.2C298.7,518.2,298.8,515.4,300.7,513z"/><path d="M311.3,526.3c2-0.4,3.7,0.6,4.9,2.2c0.6,0.8,1.2,1.3,1.9,1.8c-0.5-0.5-1-1.2-1.5-2.2C315.5,525.9,313.2,525.3,311.3,526.3z"/><path d="M443.1,543.2c0-0.2-0.1-0.4-0.1-0.6c0,0,0,0,0,0.1C443,543.1,442.9,543.2,443.1,543.2z"/><path d="M443.2,543.3c-0.1,0-0.1,0-0.1,0c0,0.2,0,0.3,0.1,0.5C443,544.1,444,543.2,443.2,543.3z"/><path d="M500,10C229.8,10,10,229.8,10,500c0,270.2,219.8,490,490,490c270.2,0,490-219.8,490-490C990,229.8,770.2,10,500,10z M790.2,213.9c2.5,0.8,5.2,1.2,7.4,3c3.6,2.9,4,4.9-1.1,6.1c-0.8-0.8-1.6-1.5-2.4-2.3c-1.3-1.5-2.8-1.8-4.7-1.5c-2.4,0.4-3.2-1-2.9-3.1C786.7,213.9,788.2,213.3,790.2,213.9z M680.5,151.2c2-0.9,1.8-2.6,2-4.4c0.7-7.8,5.5-13.7,11.8-16.9c3.4-1.8,8.3,2.2,11.5,5.6c1.2,1.2,1.9,2.8,2.9,4.3c1.2-0.5,2.4-1.1,3.7-1.5c2.3-0.7,3.6-1.7,1.5-4c-1-1-2.2-1.9-1.3-3.4c0.9-1.5,2.7-1.3,4.2-1.1c1.1,0.1,2.3,0.5,3.2,1.1c3.5,2.1,6.5,5,11.2,4.8c1.7-0.1,4.9,1.2,4.4,5.2c-0.4,3.4,5.4,3.1,5.7,6.9l0,0c4-0.4,6.5,2.2,9,4.7c1.3,0.9,2.7,1.7,4.1,1.9c3.3,0.5,5.1,2.1,6.4,5.1c1,2.3,2.6,4.1,5.5,5c4,1.2,5.2,5,4.3,8.6c-0.9,3.7,0,6.2,2.2,8.9c5.6,6.6,5,19.2-1.4,25c-2.2,2-3.5,5.1-6.7,6.1c-0.6-0.1-1.2,0-1.8-0.1c-2.3,1.8-5.4,0.2-8,0.8c-0.1-0.1-0.3-0.2-0.4-0.3c-2.8,0.4-5.7,0.6-8.5,0.1c0.1,0.5,0.1,1-0.4,1.7c-0.8,1-2.2,1.3-3.1,0.7c-5.2-3.5-12.6-3.1-16.4-9.1l0,0c-5.5-1.1-9.8-5.1-15-6.9c-0.4,0-0.7,0-1.1-0.1c-2.3-1.1-4.3-2.7-6.8-3.6c-1.2-0.4-2.5-1.9-1.7-3c4.7-6.1-1.4-7-4.4-9.5c-0.4,0-0.7,0-1.1-0.1c-0.6-1.5-1.2-3.1,0-4.6c0-0.4-0.1-0.8-0.1-1.1c0,0,0,0,0,0c-4.7,1.9-5.3-3.3-8-4.7c-5.3-4.6-10.4-9.3-9.7-17.3C678.5,153.9,678.4,152.1,680.5,151.2z M628.6,157.5c1-2.7,3.6-2.6,5.9-2c3,0.8,4.7,2.6,4.2,4.3c-1.5,5.5,2.4,7.3,3.3,10.3c0.5,1.8,2.4,3.4,0.7,5.2c-1.6,1.7-3.1,0.4-4.5-0.7c-1.5-1.2-3.5-0.1-5-0.8c-2.1-1-7.1-1.2-2.2-5.3c2-1.7,0.6-2.9-0.9-3.4C625.3,163.3,627.7,160.1,628.6,157.5z M478,781.8c-2.4-0.1-4.1-1.1-4.1-3.7c0-1.9,1.2-3.4,3.2-3.3c2.6,0.1,3.6,2.3,4.7,4.2C481.4,781.3,479.9,781.9,478,781.8z M870.4,413.6c-3.5-0.3-3.3-4.3-5.7-5.8c-0.9,0.8-1,2-0.4,2.6c7.4,6.9,6.7,15.9,4.9,24.2c-1.6,7.4-8,11.5-15.1,14c-2.2-0.3-2.9-1.9-2.7-3.7c0.4-5.3-3-7.9-7-10.2c-8.8-5-9.3-6.5-6.1-16.2c1.1-3.3,2.4-6.5,2.8-9.9c0.2-1.7,0.7-3.5,2.6-4.1c2.3-0.7,2.9,1.5,4.1,2.5c0-0.1,0.1-0.2-0.1-0.3c-3.4-2.5-0.9-5.8-1.1-8.7c0-0.8-0.1-1.6-0.1-2.4c1.5-2.8,1.6-5.6-0.8-7.8c-1.7-1.6-0.9-3.5-1.3-5.2c0-0.2-0.1-0.4-0.1-0.6c-2.2-0.2-4.4-0.4-6.5-0.9c-1.5-0.3-2.8-1-3.8-2c-0.5,0-1,0.1-1.5,0.2c-0.4,0.3-0.9,0.5-1.4,0.6c-0.7-0.1-1.3,0.1-1.7,0.3c-0.5,2.1-0.6,4.3-0.5,6.6c-1.9-0.4-3-1.5-3.8-3c-0.3,0.2-0.6,0.4-0.9,0.5c-5-0.8-8.5,0-8.9,6.2c-0.2,3.4-3,4.6-5.7,1.9c-5.2-5-11.2-8-18.5-8c-1.6,0-2.2-1.3-3.1-2.4c-2.5-2.8-4.3-5.7-1.7-9.4c0.4-0.6,0.8-1.1,1.3-1.6c-0.4-0.9-0.9-1.8-1.4-2.6c-2.1-3-4.8-3.2-7.1-0.5c-1.8,2.1-2.2,6.8-5.8,5.5c-3.5-1.3-3.1-5.7-3.1-9.1c0-0.6,0.1-1.1,0.1-1.7c0.6-1.7,2.1-1.7,3.6-2.1c-0.1-0.1-0.2,0-0.3-0.1c-0.1-0.3-0.1-0.6-0.1-0.9c-3.7,1.5-8.7,0.5-11.3-2.7c0.1-1.8-0.6-3.4-1.5-4.9c-1.1-2-2.9-3.9-0.7-6.2c2.1-2.3,4.8-3.8,8-4c2.7-0.2,2.4,2.4,3.1,4.1c0.7-1.6,1.1-2.9,1.2-4.1c-1.6-4.8-4.2-5.9-10.9-4.7c-4.3-2.5-8.1-5.6-13.6-5.6c-3.6,0-3.2-3.5-3.6-6.1c-0.9-6-1.7-12-3.1-17.9c-0.1,1.9-0.2,3.8-0.5,5.6c-0.3,1.8-0.2,3.6-2.8,4.4c-2.4,0.7-3.5-0.5-4.7-2c-0.3-0.8-0.5-1.7-0.9-2.4c-2.2,0-4.3,0-6.5,0c-1.1,0-3,0.1-3.2,0.7c-1.7,4-3.6,4.8-6.9,1.5c-1.4-1.4-2.2,0.7-2.9,1.7c-2,3.1-3.9,4.8-6.7,0.7c-1.1-1.6-3.2-2.1-5.1-2.4c-0.4,0-0.8,0-1.1,0c-3.3,3.1-7.1,4.5-11.6,3.4c-6-0.8-5.4,3.4-3.3,5.8c4.1,4.7,0.3,11.1,4.4,15.4c0.1,0.1,0.1,0.4,0,0.6c-7,9.4,2.8,16.2,3.6,24.5c1.1,0.4,2.2,0.8,3.3,1.2c3.6,2.1,5.7,5,6,9.2c0.1,1.1,0.4,2.6,1.1,3.2c7,5.6,5.8,15,10,21.9c0.9,1.5,0.8,4.4,3.6,3.2c2.1-0.9,1.4-2.8,0.4-4.4c-0.7-1.1-1.1-2.1,0.2-3c1.3-1,2.2,0.3,2.9,1.1c5.8,6.7,12.1,6.2,19.8,3.1c3.7-1.5,8.2-5.4,13.1-1.3c0.8,0.6,1.7-0.4,2.3-1.2c1-1.1,0.5-4.3,2.9-3.4c2,0.7,1.1,3.4,1.3,5.2c0,0.1,0,0.2,0,0.3c0.4,0,0.7,0,1.1,0c2.9,1,6.2,0.8,8.8,2.7c0.2,0.3,0.3,0.7,0.4,1.1c0.3-0.2,0.7-0.4,1-0.5c1.2-1.2,3.1-1.5,4.6-2.3c1.7-0.2,3.7-0.4,3.7,2c0.1,2.6,1.1,4.6,2.7,6.4c1.5,1.7,0.9,3.4-0.3,4.6c-2.7,2.6-1.1,4,1.2,5.4c4.8,4.8,4.5,12.4,9.3,17.3c0.1,2.6,1.1,4.9,2.9,6.7c3.9,4,4,9.9,7.6,14.2c1.6,1.9-0.7,3.9-2.8,4.6c-2.4,0.8-4.8,0.8-7.3,0c-1.3-0.5-2.8-2.4-4.1-0.9c-1.4,1.6,0.6,3,1.5,4.4h0c-2.4,1.8,0.2,5.2-2.3,7l0,0c-1.6,1.4-3.5,2.1-5.3,0.8c-3.3-2.6-7.3-2.6-11-2.2c-5.6,0.5-10-3.3-15.2-3.3c-0.6,0-1.2-0.5-1.4-0.9c-3.7-6-10-9.1-15.1-13.4c-3.1-2.6-4.7-7.3-3.4-12.8c1.7-6.9,3.1-14.1,3.6-21.3c-0.5-0.6-1-1.2-1.7-1.5c-1.6-1.3-3.5-1.4-5.5-1.4c-1.3-0.1-2.3-0.5-3.1-1c-1.2-0.4-2.4-0.9-3.6-1.5c-5.8-3-7.4-1.7-7.8,4.8c-0.1,1.3-0.1,2.7-0.3,4c-0.3,2.5-1.6,4.6-4.1,5c-2.6,0.5-3.6-2-4.3-3.9c-2.2-5.5-6-8.8-12-9.5c-1.3-0.2-2.6-0.8-3.6-1.6c-3.4-2.9-6.3-0.5-6.6,2.1c-0.6,5.7-7.6,3.9-8.7,8.7c-0.2,0.8-2.1-0.6-1.8-1.8c0.7-3.4-0.6-6-3.2-8c-0.5-0.4-1-1.5-0.8-2c2.1-6.5-4-5.3-6.7-6.9c-3.2-1.9-6.3-1.2-8.2,2.8c-1.3-2.5-0.5-4.6-0.8-6.6c-2.3-2.3-0.8-4.8,0.2-6.7c0.7-1.6,1.1-2.5-0.2-3.7c0-0.4-0.1-0.8-0.1-1.1c3.7-1.9,7.8,0,11.5-1.2c0-0.3,0-0.7,0-1c-3.2-1.7-5.2-4.8-8.1-7c-0.4,0-0.7-0.1-1.1-0.1c-2.6-2.5-4.8-5.3-6.7-8.3c0,2-2.3,3-4.4,3.8c-3.4,1.2-6.7,1.9-9.4,4.8c-2,2.1-5,0.7-7.4-0.7c-5.6-3.5-8.8-3-13.8,1.6c-1.6,1.5-3,3.7-5.8,3.5c-8,0.4-8,0.4-7.9-7.2c0-1.6-0.9-4.2-2-2.9c-3.9,4.2-5.4-0.2-7.8-1.4c-1.3-0.7-2.6-1.5-3.9-2.3c-2.9,0.2-6.1-0.7-8.2,2.3c-3.5,5.9-3.5,5.8-7.8,0.1c-0.7-0.9-1.5-1.8-2.5-2.2c-3.8-1.5-4.3-3.5-1.3-6.4c1.4-1.3,2.6-3.5,0.5-4.2c-7-2.4-7.1-11.9-15.1-13.6c-3.4-0.7-0.4-4.5,0.2-6.9c-6.6-0.1-12.5-2.8-18.8-1.8c-1.8,0.3-2.5-1.2-2.6-3c-0.4-4.6,3.6-6.5,5.9-9.4c0.8-1,2.9,0.3,3.3,2.1c0.4,1.9,1.4,2.1,2.9,1.4c0.8-0.4,2-0.9,2.2-1.6c0.5-1.8-1.3-2-2.3-2.8c-2.9-2.2-7.4-3.2-8.3-7.2c-0.2-0.1-0.4-0.1-0.5-0.2c-0.5-0.1-1-0.1-1.6-0.2c-0.9-0.7-1.6-1.4-2.1-2.2c-0.6-0.2-1.1-0.6-1.3-1.5c-0.6-2.1,0.8-3.5,2.3-4.8c0.4-0.3,0.8-0.7,1.2-1c0.3-0.9,0.5-1.8,0.7-2.7c-5,2.3-8.6,6.1-10.8,11.3c-0.5,1.1-1.7,1.8-3,1.1c1.8,1.4,3.5,3.1,5.4,4.7c0.9,0.7,1.8,1.5,2.3,2.6c0.7,1.5,2.8,4.1,1.1,4.7c-5.7,2.1-1.3,11.1-8.3,11.5c-3.9,0.2-5,1.6-3.5,5c1.1,2.5,0.5,5.1,0.6,7.6c0.6,0,1.2,0.1,1.7,0.4c3.2,2,6.5,4.2,6.7,8.5c0.2,3.9-1.3,6.5-5.3,8.1c-6.4,2.7-9.8,8.1-11.5,14.7c-0.1,0-0.2,0-0.4,0c3.1,7.4-4.6,17.9-12.6,16.1c-2.1-0.5-4.2-0.3-6.3,0c-7.4,1-10,7.3-5.5,13.4c2,2.7,4.8,4.2,7.9,5.5c5.9,2.3,6.4,4.3,3,9.6c-1.9,3-0.8,5.4,2.8,7c1.8,0.8,3.7,1.3,4.9,3.4c0.6,1,1.6,2.1,0.7,2.8c-2.5,2-5,3.8-7.3,6.2c-1.4,1.4-3.4,0.4-5.2-0.3c0,0,0,0.1,0,0.1c0.1,0.7-0.1,1.4-0.1,2.1c1.2,3,2.7,2.6,9.2,0.8c0.6,1.4,1.9,2.1,3,3c3.1,2.5,2.9,5.3-0.7,9.6c-1.8,1-4.1,1.2-5.3,3.1c-1,1.5-3.8,2.1-3,4.4c0.7,2.2,3.4-1,4.8,2.1c-4.3,0.7-8.1,2.7-12.4,3c-0.8,0.8-1.6,1.6-2.5,2.3c-3.6,0.3-7.4,3.2-10.9-0.5c0-0.6,0-1.2,0-1.9c-3.6-0.7-7.3,0.1-10.9,0.2c-0.4,0.7-0.7,1.4-1.2,2.3c-3.2,0.9-6.2,1.9-8.1,4.9c-0.3,0.5-0.7,1.2-1.2,1.2c-7.1,0.4-13.8,5.6-21.3,2.5c0,0,0,0.1,0,0.1c0.1,0.3,0.2,0.5,0.3,0.8c1.7,4.4,4.9,5.6,9.1,5c6-0.9,9.8,1.2,11.2,7.2c1.1,3.7,0.3,6.6-3,9c-4.1,2.8-7.1,7.4-13,6.5c-2-0.3-2.1,1.3-2.2,2.8c0,2.4-2.1,3.1-3.5,4.3c-2.5,0.9-3.5,3.2-4.7,5.2c-2.5,4.3-2.1,4.9,2.7,5.4c3.6,0.4,6.8,2.3,10.4,2.9c2.9,0.5,2,3.2,2.2,5.5c0.4-2.7,2.6-2.3,4.3-2.5c5.6-0.7,11.1,0.8,16.7,0.4c1.7-0.1,3.3,0.8,3.2,2.6c-0.4,7.8,5.8,10.4,10.9,13.3c9.6,5.4,9.7,5.1,11.8,15.3c2.6-3.1,2.7-7.4,5.9-9.9c4.1-3.2,5.5-3.2,7.3,1.6c0.6,1.7,2.6,3,1.8,5.2c0,0.8,0,1.6-0.2,2.4c-0.1,0.1-0.2,0.2-0.2,0.2c4.7,2,7.6,5.3,9.9,10.7c3.6,8.6,3.2,16.4,0.1,24.6c-1,2.6-1.7,5.7-5,5.7c0,0,0,0,0,0.1c-0.1,0.9-0.1,1.7-0.1,2.5c1.3,3.4,1.2,7.5,4.9,9.7c1.8,1.1,3.4,2.5,5.1,3.7c6.3,0.2,11.6,2.1,14.5,8.4c1.3,2.8,3.7,4,6.9,4.5c3.8,0.6,7.6,1.1,10.9,3.4c-0.9,7.5-0.7,9.8,2.7,18c1.3,3.4,2.1,6.5-0.3,9.7c0,0.2,0,0.5,0,0.7c0.4,0,0.7-0.1,1.1,0c2.9,5,2.3,9-3.1,13.3c-3.7,3-6.7,6.9-11.1,9.1c-2.7,1.4-3.1,3-1.3,6c1.5,2.5,5.8,5.7,0.5,9c-1.1,1-2.4,1.9-3.4,3.1c-3.3,4.2-7.3,5.8-12.6,4.4c-5-1.3-9.8-0.7-13.9,3c-2.3,2.1-3.8,3.8,0.6,4.9c1.6,0.4,3.2,0.6,2.8,2.7c-0.4,1.7-2,2.4-3.6,2.3c-1.9-0.2-3.7-0.8-5.6-1.2c-2.9-0.7-5.7-0.5-7,2.5c-2,4.5-5.6,4.3-9.2,3.4c-4.7-1.2-9.3-2.4-14.1-1.7c-2.8,0.4-4-3-6.8-2.5c-2.2-0.2-4.3-1.2-6.4-1.9c0.2,0.1,0.5,0.2,0.7,0.3c1.8,0.9,3.8,1.6,5.5,2.9c1.3,2.1,2.1,4.5,2.9,6.9c0.1,1.6,0.7,2.8,2.5,3.1c1.6,0.3,2.1,1.3,2,2.9c-0.2,1.7-1.3,2.2-2.7,2.5c-1.9,0.4-3.6,1.1-5.5,1.6c-2.8,0.7-4.8,1.7-4.8,5.1c0,2.1-1.8,3.7-3.3,5.1c-1.4,1.3-3.3,2.8-2.1,4.8c1.1,1.8,3.1,0.6,4.7,0.3c4.5-0.9,9.2-1.3,11.4-6.4c0.3-0.7,1.3-0.5,2.1-0.5c5-0.8,8.1,1.6,9.6,6.1c1.9,5.5-0.5,8.6-6.5,9c-5.6,0.4-10.6,3.2-15.7,5.1c-2.3,0.9-2.9,3.8-1.5,5.4c5.8,6.9,2.9,13-0.9,19.3c-0.8,0.8-1.5,1.5-2.3,2.3c-2.7-2.6-5.8-4.4-9.6-4.6c-6.8-0.2-8.8-6.5-12.8-10.2c-1.4-1.3,0.9-2.1,2.1-2.5c3.3-1.1,3.4-3.2,1.8-5.8c-2.3-3.9-3.7-8-3.5-12.5c-3.6-0.8-5.9-1.9-2.1-5.7c2.1-2.1,4.7-4.5,1.3-8c-1.6-1.7-1.1-4.2,1-5.4c1.4-0.8,2.6-1.9,3.9-2.8c-3.2,0-6.2-0.5-7.8-5c-1-2.8-4.9-2.5-7.8-1.5c-2.1,0.8-4.9,1.6-4.7,4.4c0.2,3.1,2.4,5.2,5.6,5.7c1.8,0.3,3.2,1.2,4.6,2.3c3,2.2,2.8,4.4-0.7,5.2c-3.3,0.8-5.7,2-6.3,5.6c0,0-0.4,0-0.5-0.1c-0.2-0.1-0.3-0.3-0.4-0.4c-7.5,0.3-7.8,0.7-8,9.2c0,0.4,0,0.8,0,1.1c2.4-0.5,4.6,0.6,6.9,1.2c3.6,8.2,3.1,8.9-6.9,9.3c0,1.1,0,2.3,0.1,3.4c4.4,0.8,7.8,1.1,6.5,7.8c-0.9,4.6,0.8,10.4,6.4,13c1.6,0.8,3.4,1.8,2.5,3.9c-0.9,2-2.3-0.5-3.4-0.2c-6.3,2-13-1.6-19.4,1.4c-4.2,2-11.3,0.4-15-2.3c-0.1,0-0.1-0.1-0.2-0.1c-0.7-0.5-1.3-1-1.6-1.6c0-0.4,0-0.7-0.1-1.1c-0.4,0.9-1.1,1.7-1.1,2.5c-0.5,10-2.5,11.7-12.8,10.5c-0.8-0.1-1.5-0.3-2.2-0.4c-1.4-4.6-4.6-6.7-9.2-6.9c-3.7-0.3-7.2-1.1-9.3-4.6c-4.3-1.9-8.7-3.8-13-5.8c-0.8-0.4-2-1.4-1.9-2c0.4-5.5-3.5-5.8-7.4-6.7c-5.3-1.2-8-6.3-12.2-9.2c-1.6-1.1-0.6-3.4,0.4-4.8c2-3.1,1-5.1-1.5-7.4c-3.4-3.2-5-13.7-3.2-17.8c1.3-2.9,4-2.5,6.4-3c-3.9-1.9-6.1-4.9-6.8-9.3c-0.6-3.9-4.7-5.4-7.7-2.9c-1.6,1.3-2.8,2.1-4.5,1.1c-2.6-1.6-3.7,0.2-4.1,2.1c-0.5,1.9,0.4,3.4,2.8,3.1c3-0.3,3,1.1,2.3,3.5c-2.5,8.4-2.5,8.4-11.3,6.2c-4-1-6.1,0.5-5.4,4.8c0.7,4.3,2.2,8.5,0.7,12.8c-1.1,3.3-2.1,7-7.2,3.9c-3.6-2.2-5,0-4.6,3.5c0.4,2.8-0.2,4.1-3.2,3.7c-1.8-0.2-2.7,1.1-3.8,2.2c-4.7,4.3-5.3,4.1-6.7-2.3c-0.2-0.8-0.3-1.5-0.5-2.3c-1.7-5.1-5.7-8.8-8.1-13.5c-2.6-5-8.2-6.3-13.8-6.1c-1,2.1-2.2,4,0.2,6.2c1.6,1.4,2.1,3.6,1.6,6.8c-6.8-5.5-14.3-8.3-22.6-8.4c12.4,26.3,26.9,51.3,43.5,75.1c53.3,76.6,115.5,122.2,186.5,137c-242.4-25.5-432-231.2-432-480.3c0-249.4,189.9-455.2,432.8-480.5c-67.9,14-127.8,56.3-179.6,126.9c5.8,1,11.1-2,16.7-3c3.4-0.6,6.3-1.4,8.4-4.4c0.3-0.5,1.1-1.2,1.2-1.1c5.7,3.7,9.9-1.9,14.9-2.4c1.4-0.1,2.4,0.6,2.4,1.9c0.1,6.5,3.2,2.8,5.3,1.5c1.6-1,2.8-2.5,4.7-4.2c-2.9-1.7-5.5-3.2-8.2-4.6c-1-0.6-2-1.2-2-2.6c0-1.6,1.2-2.4,2.6-2.6c5.2-0.8,9.3-5.2,15.6-2.7c4.1,1.6,9.2-0.4,10.9-6c1.5-4.8,6.1-5.5,9.8-7.4c4-2,8.7-2.9,10.7-7.9c1.1-2.8,4.4-2.8,6.9-3.7c10.2-3.8,20.5-7.5,30.8-11.1c3.5-1.2,7.2-0.7,10.9-0.9c2.3-0.1,4.8,0.2,6.4-1.9c1.3-1.7,2.9-3.3,4.7-1.8c2.3,2,6.4,2.5,6.5,6.6c0.1,1.7,0,3.5-0.1,5.2c8.5,6.7,10.4,18.3,18.5,25.3c2.1,1.8,1.8,4.1,0.4,6.2c-0.9,1.4-2.2,2.6-3.4,3.9c-1.6,1.7-4.5,2.9-3.5,5.9c0.4,1.2,1.1,1.9,1.9,2.5c0.8-0.5,1.5-1,2.3-1.5c2.8-1.4,5.6-0.3,8.4,0.1c1.5,0.2,3.6,1.3,4.4,0.2c2.7-3.6,7.3-4.3,10.2-6.9c3-2.7,4.8-2.7,7.3-0.3c1.9,1.8,3.8,3.6,4.8,6.3c1.1,3,4.9,3.2,6.5,0.5c1.1-1.9,3.3-1.8,4.9-3.5c-0.7-2.6-4.6-3.6-3.9-7c0.4-2.2,2.2-3.5,3.3-5.3c1.5-2.5,4-2.7,6.6-2.7c4.2,0,8-0.9,11.1-4c6-1.3,9.3,3.3,12.7,6.5c6.6,6.3,13.2,9.7,22.3,5.5c3.4-1.5,6.7,1.1,9.2,3.5c1.8,1.6,1.4,3.4-1.2,4.4c-3.3,1.3-6.5,2.4-10,0.9c-1.3-0.6-2.8-1.5-4.4-0.2c0.7,2.5,3.1,3.2,4.7,4.8c-0.8,1.1-1.5,2.3-2.2,3.4c-2.9,0.8-6.1,2-5,5.5c0.9,3,4.4,2.3,7,2.3c1.7,0,3.5-2.2,5,0.4c-5.4,0.8-10.5,3.2-16.2,2.9c-2.6-0.1-4.9-0.4-7.1-1.9c-2.1-1.5-4-1.7-6.3-0.2c-3.7,2.4-8.4,0.9-10.5-2.9c-0.6-1-0.9-2.2-1.5-3.1c-1.2-1.6-2.9-1.7-4.7-1.1c-1,0.3-1.8,1-1.6,2.1c0.5,2.9,3.1,0,4.5,1.8c-3.6,4-2.7,7.2,2.3,9.5c2.1,0.9,3,2.4,3,5c0,6.3,2.4,8.4,8.8,8.5c6.3,0.1,12.7-0.2,19,0c3.2,0.1,7.1,0,6.6,5.6c-0.1,1,4.3,2.8,6.7,3.6c3,0.9,6,1.7,8.9,2.8c0.6-0.5,1.2-0.9,2.1-1c1.7,0,3.3-0.2,4.8,0.5c3.4,0.8,5.5,3.9,8.9,4.8c1.3,1.1,3.2,2,4,0.4c2.9-5.5,7.1-2.8,11-2.2c3.2,0.5,6.3,2.8,8-2.9c0.8-2.9,4.9-2.2,7.4-0.6c1.5,1,2.7,2.3,4.4,0.5c5.8,0,11.3,0.6,13.8,7c0.5,1,1,2.1,1.5,3.1c1.2,2.3,1.7,6.1,5.2,5c3.8-1.2,9.5,0.4,10.7-5.8v0c5.4,1.4,10.3,4.7,16.1,4.7c-0.6,1-1,2.2-1.8,2.9c-2,1.9-5.1,3.2-3.3,6.9c1.7,3.8,4.7,5.9,8.9,6.3c2.3,0.2,4.7,0.1,6.8,0.7c3.9,1.1,7.9,2.3,9.2,6.8c1.7,5.9,5.7,7.7,11.4,6.5c3.8-1.2,7.3-1.7,10.8,1.2c1.7,1.4,4.1,1,6.2,0.6c6.7-1.4,12.3,0.6,16.2,6.2c2.6,3.8,5.2,4,8.5,1.3c5.9,0.2,11.4,1.3,16,5.1c2.1,1.7,4.6,1.6,7.1,1.7c2.2,2.7,5.4,2.7,8.4,2.9c3.3,0.2,5.9,1.4,7.7,4.1c7.6,3,15.1,6,22.8,8.9c1,0.4,2,0.8,2.9,1.2c0.4-1.2,0.9-2.4,1.1-3.7c0.6-2.8,2.1-5.1,5.5-4.6c3.3,0.4,4.7-0.9,5.6-4c0.9-2.8,3.2-3.9,6.3-3.8c2.8,0.1,4.4,1.2,5.4,3.9c0.5,1.5,1.8,2.9,3.5,4.9c-4.9-6.1-6.6-12.9-9.4-19c-1.9-4.2-7-4.5-8.1-8.9c-1.1-4.3-0.4-9.3-4.2-12.6c-4-3.5-2-7.3-1-11.2c0.3-1.1,1.4-1.2,2.3-1.4c0.2,0,0.3,0.1,0.5,0.2c0.2-1-0.9-1.5-1.9-2.1v-6c5.9,4.9,11.5,8.8,16.2,13.6c3.6,3.6,8.2,5.7,11.8,9.1c3.2,3,1.2,3.6-1.6,4.1c0,1.1,0.1,2.3,0.2,3.4c-0.5,1.3-1,2.5-1.3,3.8c-0.9,2.9-2.2,4-4.8,1.5c-1.1-1.1-2.6-2.5-3.9-1.2c-1.4,1.4,0.4,2.8,1.3,3.9c2.3,2.5,6.6,4.2,3.1,8.8c-0.1,0.2,0.1,0.9,0.4,1c6.3,2.3,7,11.3,14.5,12.3c2.6,0.3,3.5,2.1,2.3,4.7c-1,2.1-0.9,4.3,1,5.8c2.1,1.7,2.2-1.2,3.3-1.9c0.8-0.5,1.6-0.4,2,0.4c1.1,2,2.6,4.4,0.9,6.4c-2.5,2.9-3.2,5.4-1,8.7c1,1.6,0.5,2.9-2,2.6c-3.9-0.4-4,2.8-4.6,5.4c-0.8,3.5,1.7,3.2,3.9,4.1c2.8,1.1,3.8,4.4,5.5,6.9c2.8,4,2.8,8.7,4.5,13c0.7,1.8,0.5,3.8-1.4,5.2c-4,2.8-5,7.1-5.1,11.6c-0.2,6.5-1.7,12.7,1.3,19.6c2.5,5.9,7.1,6.5,11,8.7c7.3,4,9.9,7.6,7.9,15.7c-0.8,3.1-0.8,5.9,0.1,8.9c1.3,4.4,3.7,8.8,1.2,13.7c-0.7,1.4,0.6,2.9,1.8,4c5.7,4.9,5.7,10.9,3.3,17.3C871.3,413,871,413.4,870.4,413.6z M436,845.7C436,845.7,436,845.7,436,845.7c-7.2,4.4-14.6,7.4-23.1,3.8c-1.8-0.8-3.6-2.3-5.4-1.4c-5.4,2.8-7.4-0.6-8.9-4.6c-1.4-3.9-4.9-6.3-6.6-10.2c4.2-1.3,7.5,2.5,9.9,2.1c5.3-0.8,11.4,0.2,15.8-4c3-2.9,4.4-3.7,5.4,1.5c1.2,6,7.3,8.3,12.8,5.8c0.4,0,0.8,0,1.1,0c2.1,1.6,1.7,3.3-0.1,4.4C435.9,843.9,435.3,844.4,436,845.7z M426.7,898.7c0.4,5.3-2.2,7.7-9.1,8.2c-1.2-0.8-2.3-1.5-3.5-2.3c-1-1.5-2.6-2.2-4.2-2.9c-2.7-1.3-3.2-3.7-2.6-6.3c0.7-2.7,3.2-2.3,5.2-2.6c1.3-0.2,2.7,0.3,4,0.2C424.4,892.1,426.2,893.1,426.7,898.7z M351.9,873.6c-0.1,2.5-2.2,2.7-4.2,2.9c-2.1-0.2-4.8-0.6-4.5-3.1c0.2-2.4,3.3-2.1,5.2-2.5C350.3,870.5,351.9,871.5,351.9,873.6z"/></g></g><g></g><g></g><g></g><g></g><g></g><g></g><g></g><g></g><g></g><g></g><g></g><g></g><g></g><g></g><g></g></g>
</svg>