<svg width="1322" height="239.51" xmlns="http://www.w3.org/2000/svg">
 <title>mountians</title>

 <g>
  <title>background</title>
  <rect fill="none" id="canvas_background" height="402" width="582" y="-1" x="-1"/>
 </g>
 <g>
  <title>Layer 1</title>
  <rect id="svg_2" height="141" width="391" y="101.792505" x="544.6" stroke-width="1.5" stroke="#c1d39c" fill="#c1d39c"/>
  <path id="svg_1" d="m0,183.529998c3.29,-7.68 40.59,-11 41.69,-7.68c-1.1,-8.78 24.14,-37.3 40.59,-43.88c2.38,-0.22 8.62,-4.11 12.07,0c4.59,5.46 11.39,12 13.16,13.16c5.23,3.43 -13.16,9.87 -13.16,9.87s47.54,6.44 52.66,6.59c6.58,1.09 -4.39,4.38 -4.39,4.38c10.07,-2 49.37,14.27 49.37,14.27c16.45,-15.36 45,-12.07 45,-12.07c-0.28,-4.67 -68.92,-23.12 -68,-27.43c11,-12.07 74.6,4.39 120.68,-37.3c16.45,3.29 17.55,2.2 23,-13.16c5.51,-18.38 41.94,-23.16 35.1,-24.14c25.63,-33.13 65.8,-44.56 114.1,-43.88c-2.2,24.13 21.94,34 21.94,34s-3.76,11 -23,17.55c0,0 -6.79,7.12 -6.58,8.78c1,8.35 18.55,4.78 18.65,3.29c49.37,19.75 38.4,11 60.34,-16.46c5.29,1.61 7.51,35.94 23,28.53c2.22,-1.06 15.7,-3.4 18.65,-5.49c0.64,2.79 3.6,19.38 2.19,16.46c-7.57,12.09 -11.68,13.45 5.49,16.45c2.19,15.36 -1.1,18.65 -5.49,26.33c-3.82,4.76 -2,6.36 3.29,3.29c3.58,-2.06 5.57,-11.14 13.17,-13.16c1.39,-0.37 3.53,5.85 8.77,1.1c17.18,-17.78 16.46,0 14.26,2.19c13.32,-8.79 19,12.84 18.65,21.94c4.39,4.39 52.66,26.33 71.31,36.21c18.68,8.3 10.74,-0.38 4.39,-6.59c-35.1,-24.13 -69.11,-57 -66.92,-71.31c0,0 18.65,12.07 38.4,27.43c5.08,-1.16 18.08,4.49 47.17,13.16c22.9,6.83 29.26,2.7 48.27,26.33c7.68,4.39 11,8.78 4.39,-4.38c-5.72,-8.17 -4.39,-24.14 -4.39,-24.14c-3.29,1.1 -73.5,-26.33 -82.28,-35.11c-10,-12.18 -3.39,-12.46 7.68,-12.06c9.36,-6 11.42,-18.23 34,-5.49c13.54,1.72 31.91,-15.72 58.31,-24.33c33.3,-10.87 63.87,-35.39 94.18,-38.2c19.59,-0.89 28.41,3.3 31.82,2.19c9.87,0 13.16,-2.19 14.26,9.88c2.33,5.76 5.62,6.83 8.78,7.68c-14.26,7.68 -23,9.87 -25.23,19.74c-8.78,1.1 -12.14,1.47 -12.07,12.07c0,2.57 -3.29,3.29 -3.29,3.29c6.58,3.29 29.69,0.35 28.52,-1.1c-11,4.39 -14.26,25.24 -14.26,25.24c-2.55,3.69 -13.17,3.29 2.19,28.52c1.1,12.07 -6.43,25.89 8.78,6.58c5.94,-7.54 19.75,-3.29 19.75,-3.29c-7.68,26.33 8.77,20.85 2.19,52.66c10.21,-17.37 64.73,18.65 77.89,27.43c2.3,0.43 7.19,-5 -2.19,-11c-11.37,-7.77 -18.21,-29.69 -16.46,-34c-11,-6.58 -18.65,-34 -18.65,-40.59c3.09,-2.48 14.77,-10.9 29.62,-3.29c19.31,9.89 22.87,0.21 29.62,0c21.2,-20.41 45.62,-11.08 46.08,-6.59c4,3.72 23.08,2.43 39.5,-1.09c39.15,-8.4 35.51,2.28 35.1,4.38c12.07,6.59 5.49,11 -4.39,19.75c-1,0.47 -1.41,3 -1.09,5.49c-12.11,8.75 -4.55,9.78 5.48,7.68c11.22,-2.35 29,-15.25 34,-11c0.29,0.24 2.19,2.19 1.1,6.58c9.29,4.65 -0.6,10.49 1.09,13.16c18.65,-11 42.79,-15.36 26.33,8.78c37.3,-11 73.51,37.3 87.77,38.4c-0.42,0.49 0.83,-8.65 -4.39,-11c-14.88,-6.64 -59.88,-37 -70.21,-56c0,0 -73.5,-34 -100.93,-58.15c-4.52,0.69 -5.13,-11 -25.23,2.2c-24.14,30.71 -89.22,-10.74 -111.9,-29.63c-19.16,-15.94 -47.18,-35.1 -60.34,-40.59c-18.65,-28.52 -26.33,-20.84 -52.66,-5.48c-71.29,26.47 -142.57,56.09 -150.29,61.58c0,0 -20,-5.36 -18.65,-3.29c-19.75,-6.58 -42.79,4.39 -42.79,4.39c-21.67,1.3 -35.4,-11.26 -56,-27.43c-4.9,-3.86 -11.55,-0.23 -17.55,-5.48c-19.3,-16.88 -21.71,-16.1 -54.85,-18.65c-37.3,-14.26 -40.6,-26.33 -65.83,-41.69c-11,-8.78 -13.79,-12 -47.17,7.68c-65.83,8.78 -57.05,11 -106.42,38.4c-51.56,29.62 -111.9,68 -156.88,75.69c-7.54,2.61 -16.51,3.21 -27.43,1.1c-20,-3.85 -26,-8.53 -42.78,-18.65c-15.24,-9.16 -27.82,-0.48 -31.82,4.39c-7.53,9.16 -6.58,13.16 -29.62,25.23c-13.16,1.1 -20.84,12.07 -31.81,24.14c-1.07,1.84 -15.36,12.07 -15.36,12.07s-1.26,8.03 -1.04,6.57z"/>
 </g>
</svg>