<?xml version="1.0" encoding="utf-8"?>
<!-- Generator: Adobe Illustrator 23.0.2, SVG Export Plug-In . SVG Version: 6.00 Build 0)  -->
<svg version="1.1" id="Layer_1" xmlns="http://www.w3.org/2000/svg" xmlns:xlink="http://www.w3.org/1999/xlink" x="0px" y="0px"
	 viewBox="0 0 1322 239.5" style="enable-background:new 0 0 1322 239.5;" xml:space="preserve">
<title>mountians</title>
<path d="M0,183.5c401.3,29.4,628.8,41.1,764,46.3c77.9,3,163.3,6.2,278.8,6.9c122.7,0.8,279.2-1.4,279.2-0.6c0,0,0,0,0,0
	c-19.5,14.1-1042.8-16.3-1280.3-60.3c-1.1-8.8,24.1-37.3,40.6-43.9c2.4-0.2,8.6-4.1,12.1,0c4.6,5.5,11.4,12,13.2,13.2
	c5.2,3.4-13.2,9.9-13.2,9.9s47.5,6.4,52.7,6.6c6.6,1.1-4.4,4.4-4.4,4.4c10.1-2,49.4,14.3,49.4,14.3c16.4-15.4,45-12.1,45-12.1
	c-0.3-4.7-68.9-23.1-68-27.4c11-12.1,74.6,4.4,120.7-37.3c16.5,3.3,17.5,2.2,23-13.2c5.5-18.4,41.9-23.2,35.1-24.1
	c25.6-33.1,65.8-44.6,114.1-43.9c-2.2,24.1,21.9,34,21.9,34s-3.8,11-23,17.5c0,0-6.8,7.1-6.6,8.8c1,8.4,18.5,4.8,18.6,3.3
	c49.4,19.8,38.4,11,60.3-16.5c5.3,1.6,7.5,35.9,23,28.5c2.2-1.1,15.7-3.4,18.7-5.5c0.6,2.8,3.6,19.4,2.2,16.5
	c-7.6,12.1-11.7,13.5,5.5,16.5c2.2,15.4-1.1,18.6-5.5,26.3c-3.8,4.8-2,6.4,3.3,3.3c3.6-2.1,5.6-11.1,13.2-13.2
	c1.4-0.4,3.5,5.9,8.8,1.1c17.2-17.8,16.5,0,14.3,2.2c13.3-8.8,19,12.8,18.7,21.9c4.4,4.4,52.7,26.3,71.3,36.2
	c18.7,8.3,10.7-0.4,4.4-6.6c-35.1-24.1-69.1-57-66.9-71.3c0,0,18.7,12.1,38.4,27.4c5.1-1.2,18.1,4.5,47.2,13.2
	c22.9,6.8,29.3,2.7,48.3,26.3c7.7,4.4,11,8.8,4.4-4.4c-5.7-8.2-4.4-24.1-4.4-24.1c-3.3,1.1-73.5-26.3-82.3-35.1
	c-10-12.2-3.4-12.5,7.7-12.1c9.4-6,11.4-18.2,34-5.5c13.5,1.7,31.9-15.7,58.3-24.3c33.3-10.9,63.9-35.4,94.2-38.2
	c19.6-0.9,28.4,3.3,31.8,2.2c9.9,0,13.2-2.2,14.3,9.9c2.3,5.8,5.6,6.8,8.8,7.7c-14.3,7.7-23,9.9-25.2,19.7
	c-8.8,1.1-12.1,1.5-12.1,12.1c0,2.6-3.3,3.3-3.3,3.3c6.6,3.3,29.7,0.4,28.5-1.1c-11,4.4-14.3,25.2-14.3,25.2
	c-2.5,3.7-13.2,3.3,2.2,28.5c1.1,12.1-6.4,25.9,8.8,6.6c5.9-7.5,19.8-3.3,19.8-3.3c-7.7,26.3,8.8,20.9,2.2,52.7
	c19.5-4,30.9-0.3,37.8,3.9c6.3,3.9,11.4,9.7,22.6,13.9c6.3,2.3,11.8,3.2,15.5,3.5c0-1.6-0.1-3.2-0.3-4.8c-1.5-15.3-9.8-26.8-16.5-34
	c-11-6.6-18.7-34-18.7-40.6c3.1-2.5,14.8-10.9,29.6-3.3c19.3,9.9,22.9,0.2,29.6,0c21.2-20.4,45.6-11.1,46.1-6.6
	c4,3.7,23.1,2.4,39.5-1.1c39.2-8.4,35.5,2.3,35.1,4.4c12.1,6.6,5.5,11-4.4,19.8c-1,0.5-1.4,3-1.1,5.5c-12.1,8.8-4.6,9.8,5.5,7.7
	c11.2-2.4,29-15.3,34-11c0.3,0.2,2.2,2.2,1.1,6.6c9.3,4.6-0.6,10.5,1.1,13.2c18.7-11,42.8-15.4,26.3,8.8
	c37.3-11,73.5,37.3,87.8,38.4c-0.4,0.5,0.8-8.6-4.4-11c-14.9-6.6-59.9-37-70.2-56c0,0-73.5-34-100.9-58.1c-4.5,0.7-5.1-11-25.2,2.2
	c-24.1,30.7-89.2-10.7-111.9-29.6C990.1,67.6,962.1,48.4,949,43c-18.7-28.5-26.3-20.8-52.7-5.5C825,64,753.7,93.6,746,99.1
	c0,0-20-5.4-18.7-3.3c-19.8-6.6-42.8,4.4-42.8,4.4c-21.7,1.3-35.4-11.3-56-27.4c-4.9-3.9-11.5-0.2-17.5-5.5
	c-19.3-16.9-21.7-16.1-54.8-18.6c-37.3-14.3-40.6-26.3-65.8-41.7c-11-8.8-13.8-12-47.2,7.7c-65.8,8.8-57,11-106.4,38.4
	c-51.6,29.6-111.9,68-156.9,75.7c-7.5,2.6-16.5,3.2-27.4,1.1c-20-3.9-26-8.5-42.8-18.6c-15.2-9.2-27.8-0.5-31.8,4.4
	c-7.5,9.2-6.6,13.2-29.6,25.2c-13.2,1.1-20.8,12.1-31.8,24.1C15,165.2,4.5,167.8,1,177C0.1,179.3-0.1,181.6,0,183.5z"/>
<path d="M1045.9,221.1"/>
</svg>
