<svg id="Layer_1" data-name="Layer 1" xmlns="http://www.w3.org/2000/svg" viewBox="0 0 639.96 613.75"><defs><style>.cls-1,.cls-2,.cls-3{stroke:#000;stroke-miterlimit:10;}.cls-1,.cls-2{stroke-width:9px;}.cls-2,.cls-3,.cls-4{fill:#fff;}.cls-3{stroke-width:6px;}</style></defs><title>sheep</title><path class="cls-1" d="M858.83,494.4c-4.1,17.12.87,137.07.87,137.07.44,12.45,18.5,13.89,18-.64,0,0,.53-129.74-1.94-139.11" transform="translate(-361 -52.01)"/><path d="M816.19,462.64c-4.4,16.43-1.52,132.05-1.52,132.05.22,12,18.26,13.66,18-.34,0,0,2.79-125,.48-134" transform="translate(-361 -52.01)"/><path class="cls-1" d="M633.5,519.5c-4.71,16.34-4,132-4,132,0,12,18,14,18,0,0,0,5.14-124.9,3-134" transform="translate(-361 -52.01)"/><path d="M585.9,482.38c-5,16.25-6.64,131.89-6.64,131.89-.25,12,17.71,14.36,18,.36,0,0,7.65-124.77,5.69-133.91" transform="translate(-361 -52.01)"/><path class="cls-2" d="M704,185c33.37-45.43,83.36-32.72,89,21,30.73-46.17,77-28.17,90,19,2-1.86,12.41-11.25,27.75-10.39,3.37.19,12.27,1.17,19.76,7.34,11.26,9.29,15,26.84,9.49,44.05,47.5-12.5,87.5,64.5,21,85,62.5,20.5,34.5,97.5-23,89,54.21,65-24.83,107.31-66,61-6.92,53.93-65.82,71.1-85,9-5.5,46.5-56.5,69.5-80,20-13.53,61.16-88.06,48.55-84-17-29.5,25.5-76.5-13.5-52-51-57.5,21.5-80.5-37.5-44-69-52.74-7.29-48.5-70.5-3-76-40.27-34.85-18.51-82.94,44.5-67.5-19.5-60.79,33.77-77,64-42C636.92,149,698.33,144.39,704,185Z" transform="translate(-361 -52.01)"/><path class="cls-2" d="M969.5,216.5" transform="translate(-361 -52.01)"/><path d="M624,334l18-36c32,80,106,77,101-6,3-48-96.08-240.63-181-217-51.68-29.44-184,68-198,111-2,8.71-8.89,41.09,8.91,54.88,17,13.23,48.08-4,48.09-.88C385,402,546,452,624,334Z" transform="translate(-361 -52.01)"/><path class="cls-3" d="M482,101c5-71.58,187.48-59.85,176.49,37-9.4,32-53.26,47-75.19,6-11.49,23-53.26,22-56.39-13C506.05,142,481,116,482,101Z" transform="translate(-361 -52.01)"/><circle class="cls-4" cx="121" cy="162.99" r="50"/><circle class="cls-4" cx="231" cy="192.99" r="52"/><path d="M452,221c19-11,33-7,40,13,2.29-14.93,0-27-9-32C468,199,456,209.17,452,221Z" transform="translate(-361 -52.01)"/><path d="M570.28,255.55C585,239,601,240,614,259c-1.16-15.06-8-30-18-31C580.21,227.18,569.86,241.65,570.28,255.55Z" transform="translate(-361 -52.01)"/></svg>