<?xml version="1.0" encoding="UTF-8"?>
<!DOCTYPE svg PUBLIC "-//W3C//DTD SVG 1.1//EN" "http://www.w3.org/Graphics/SVG/1.1/DTD/svg11.dtd">
<!-- Creator: CorelDRAW -->
<svg xmlns="http://www.w3.org/2000/svg" xml:space="preserve" width="64px" height="64px" shape-rendering="geometricPrecision" text-rendering="geometricPrecision" image-rendering="optimizeQuality" fill-rule="evenodd" clip-rule="evenodd"
viewBox="0 0 640 640"
 xmlns:xlink="http://www.w3.org/1999/xlink">
 <g id="Layer_x0020_1">
  <metadata id="CorelCorpID_0Corel-Layer"/>
  <path fill="black" d="M325.161 640l-10.3112 0c0,-84.131 -31.4413,-157.632 -94.324,-220.515 -62.8827,-62.8827 -136.384,-94.324 -220.526,-94.324l0 -10.3112c84.1428,0 157.644,-31.4413 220.526,-94.4657 62.8827,-63.0362 94.324,-136.537 94.324,-220.373l10.3112 0c0,84.131 31.4413,157.632 94.324,220.515 62.8827,62.8827 136.384,94.324 220.515,94.324l0 10.3112c-84.131,0 -157.632,31.4413 -220.515,94.324 -62.8827,62.8827 -94.324,136.384 -94.324,220.515z"/>
 </g>
</svg>
